P1
# Creeper
15 15
1 1 1 1 1 1 1 1 1 1 1 1 1 1 1
1 1 1 1 1 1 1 1 1 1 1 1 1 1 1
1 1 1 1 1 1 1 1 1 1 1 1 1 1 1
1 1 0 0 0 0 1 1 1 0 0 0 0 1 1
1 1 0 0 0 0 1 1 1 0 0 0 0 1 1
1 1 0 0 0 0 1 1 1 0 0 0 0 1 1
1 1 0 0 0 0 1 1 1 0 0 0 0 1 1
1 1 1 1 1 1 1 1 1 1 1 1 1 1 1
1 1 1 1 1 1 1 1 1 1 1 1 1 1 1
1 1 1 1 1 0 0 0 0 0 1 1 1 1 1
1 1 1 1 0 0 0 0 0 0 0 1 1 1 1
1 1 1 1 0 0 0 0 0 0 0 1 1 1 1
1 1 1 1 0 0 0 0 0 0 0 1 1 1 1
1 1 1 1 0 0 0 0 0 0 0 1 1 1 1
1 1 1 1 0 0 1 1 1 0 0 1 1 1 1